<svg id="Ebene_1" data-name="Ebene 1" xmlns="http://www.w3.org/2000/svg" viewBox="0 0 170 65"><defs><style>.cls-1{fill:none;}.cls-2{fill:#fff;}.cls-3{clip-path:url(#clip-path);}.cls-4{fill:#e20613;}</style><clipPath id="clip-path"><path class="cls-1" d="M0 0h170v65H0z"/></clipPath></defs><path class="cls-2" d="M0 0h170v65H0z"/><path class="cls-2" d="M0 0h170v65H0z"/><path class="cls-2" d="M0 0h170v65H0z"/><g class="cls-3"><path class="cls-4" d="M66.95 42.3c-.71 4.66-2.68 8.89-9.3 8.89h-5.74l2.73-17.79h5.11c2.45 0 3.93.38 5.05 1.31 1.87 1.54 2.63 4.41 2.14 7.59M63.2 26.68H45.11l-4.82 31.41h19.18c12 0 17.18-6.25 18.25-15.8 1.09-9.73-4.5-15.61-14.51-15.61M94.53 26.68l-2.7 17.62c-.6 3.94 1.57 6.87 5.78 6.87 3.59 0 6.61-2.41 7.29-6.88l2.7-17.62h10.6l-2.54 16.55c-1.4 9.12-6.49 15.4-18.81 15.4-8.19 0-12.73-3-14.69-6.78a15 15 0 0 1-1.1-9l2.47-16.14zM37.46 49.73a36.73 36.73 0 0 1-8.82.91c-8.14 0-11-3.83-10.66-8.35.33-5 4.68-8.59 13.12-8.59a32.16 32.16 0 0 1 7.9 1.15l1.14-7.38A49.56 49.56 0 0 0 28 26.14c-15 0-20.15 8.3-21.13 14.37C5.53 49.05 11 58.64 25.45 58.64c4.61 0 9.32-.68 10.85-1.39z"/></g></svg>